<svg width="76" height="76" viewBox="0 0 76 76" fill="none" xmlns="http://www.w3.org/2000/svg">
<path id="Ellipse 8" d="M2 38C2 42.7276 2.93117 47.4089 4.74034 51.7766C6.54951 56.1443 9.20125 60.1129 12.5442 63.4558C15.8871 66.7988 19.8557 69.4505 24.2234 71.2597C28.5911 73.0688 33.2724 74 38 74C42.7276 74 47.4089 73.0688 51.7766 71.2597C56.1443 69.4505 60.1129 66.7987 63.4559 63.4558C66.7988 60.1129 69.4505 56.1443 71.2597 51.7766C73.0688 47.4089 74 42.7276 74 38C74 33.2724 73.0688 28.5911 71.2597 24.2234C69.4505 19.8557 66.7987 15.8871 63.4558 12.5441C60.1129 9.20124 56.1443 6.5495 51.7766 4.74033C47.4089 2.93116 42.7276 2 38 2C33.2724 2 28.5911 2.93117 24.2234 4.74034C19.8557 6.54952 15.887 9.20126 12.5441 12.5442C9.20123 15.8871 6.5495 19.8557 4.74033 24.2234C2.93116 28.5911 2 33.2724 2 38L2 38Z" stroke="#FCCFCF" stroke-width="4" stroke-linecap="round" stroke-linejoin="round"/>
</svg>
