<svg width="48" height="48" viewBox="0 0 48 48" fill="none" xmlns="http://www.w3.org/2000/svg">
<g id="Benefits">
<path id="Vector" d="M40.5 7.5H7.5C6.70435 7.5 5.94129 7.81607 5.37868 8.37868C4.81607 8.94129 4.5 9.70435 4.5 10.5V40.5C4.49982 40.7558 4.56506 41.0074 4.68953 41.2309C4.81401 41.4544 4.99357 41.6424 5.21115 41.7769C5.42873 41.9114 5.67711 41.9881 5.93267 41.9996C6.18823 42.011 6.44248 41.957 6.67125 41.8425L12 39.1763L17.3287 41.8425C17.5371 41.9468 17.767 42.0011 18 42.0011C18.233 42.0011 18.4629 41.9468 18.6713 41.8425L24 39.1763L29.3288 41.8425C29.5371 41.9468 29.767 42.0011 30 42.0011C30.233 42.0011 30.4629 41.9468 30.6712 41.8425L36 39.1763L41.3288 41.8425C41.5575 41.957 41.8118 42.011 42.0673 41.9996C42.3229 41.9881 42.5713 41.9114 42.7888 41.7769C43.0064 41.6424 43.186 41.4544 43.3105 41.2309C43.4349 41.0074 43.5002 40.7558 43.5 40.5V10.5C43.5 9.70435 43.1839 8.94129 42.6213 8.37868C42.0587 7.81607 41.2957 7.5 40.5 7.5ZM40.5 38.0737L36.6712 36.1575C36.4629 36.0532 36.233 35.9989 36 35.9989C35.767 35.9989 35.5371 36.0532 35.3288 36.1575L30 38.8237L24.6712 36.1575C24.4629 36.0532 24.233 35.9989 24 35.9989C23.767 35.9989 23.5371 36.0532 23.3288 36.1575L18 38.8237L12.6713 36.1575C12.4629 36.0532 12.233 35.9989 12 35.9989C11.767 35.9989 11.5371 36.0532 11.3288 36.1575L7.5 38.0737V10.5H40.5V38.0737ZM11.3288 31.3425C11.505 31.4308 11.697 31.4834 11.8936 31.4975C12.0903 31.5115 12.2877 31.4867 12.4748 31.4243C12.6618 31.362 12.8347 31.2634 12.9836 31.1342C13.1325 31.0049 13.2544 30.8476 13.3425 30.6712L14.4263 28.5H21.5737L22.6575 30.6712C22.7456 30.8475 22.8677 31.0048 23.0166 31.1339C23.1655 31.2631 23.3384 31.3616 23.5254 31.4239C23.7123 31.4863 23.9098 31.5112 24.1064 31.4972C24.303 31.4832 24.495 31.4307 24.6712 31.3425C24.8475 31.2544 25.0048 31.1323 25.1339 30.9834C25.2631 30.8345 25.3616 30.6616 25.4239 30.4746C25.4863 30.2877 25.5112 30.0902 25.4972 29.8936C25.4832 29.697 25.4307 29.505 25.3425 29.3288L19.3425 17.3287C19.2181 17.0791 19.0266 16.8692 18.7894 16.7224C18.5523 16.5756 18.2789 16.4978 18 16.4978C17.7211 16.4978 17.4477 16.5756 17.2106 16.7224C16.9734 16.8692 16.7819 17.0791 16.6575 17.3287L10.6575 29.3288C10.5692 29.505 10.5166 29.697 10.5025 29.8936C10.4885 30.0903 10.5133 30.2877 10.5757 30.4748C10.638 30.6618 10.7366 30.8347 10.8658 30.9836C10.9951 31.1325 11.1524 31.2544 11.3288 31.3425ZM18 21.3544L20.0737 25.5H15.9263L18 21.3544ZM25.5 24C25.5 23.6022 25.658 23.2206 25.9393 22.9393C26.2206 22.658 26.6022 22.5 27 22.5H30V19.5C30 19.1022 30.158 18.7206 30.4393 18.4393C30.7206 18.158 31.1022 18 31.5 18C31.8978 18 32.2794 18.158 32.5607 18.4393C32.842 18.7206 33 19.1022 33 19.5V22.5H36C36.3978 22.5 36.7794 22.658 37.0607 22.9393C37.342 23.2206 37.5 23.6022 37.5 24C37.5 24.3978 37.342 24.7794 37.0607 25.0607C36.7794 25.342 36.3978 25.5 36 25.5H33V28.5C33 28.8978 32.842 29.2794 32.5607 29.5607C32.2794 29.842 31.8978 30 31.5 30C31.1022 30 30.7206 29.842 30.4393 29.5607C30.158 29.2794 30 28.8978 30 28.5V25.5H27C26.6022 25.5 26.2206 25.342 25.9393 25.0607C25.658 24.7794 25.5 24.3978 25.5 24Z" fill="#6CD42B"/>
</g>
</svg>
