<svg width="48" height="48" viewBox="0 0 48 48" fill="none" xmlns="http://www.w3.org/2000/svg">
<g id="Benefits">
<path id="Vector" d="M30.8325 19.7512L21.8325 13.7512C21.6065 13.6005 21.3439 13.5139 21.0726 13.5008C20.8013 13.4876 20.5315 13.5484 20.292 13.6766C20.0526 13.8048 19.8524 13.9956 19.7129 14.2287C19.5734 14.4618 19.4998 14.7284 19.5 15V27C19.4998 27.2716 19.5734 27.5382 19.7129 27.7713C19.8524 28.0044 20.0526 28.1952 20.292 28.3234C20.5315 28.4516 20.8013 28.5124 21.0726 28.4992C21.3439 28.4861 21.6065 28.3995 21.8325 28.2488L30.8325 22.2488C31.0383 22.1118 31.207 21.9262 31.3237 21.7083C31.4404 21.4905 31.5015 21.2471 31.5015 21C31.5015 20.7529 31.4404 20.5095 31.3237 20.2917C31.207 20.0738 31.0383 19.8882 30.8325 19.7512ZM22.5 24.1969V17.8125L27.2962 21L22.5 24.1969ZM40.5 7.5H7.5C6.70435 7.5 5.94129 7.81607 5.37868 8.37868C4.81607 8.94129 4.5 9.70435 4.5 10.5V31.5C4.5 32.2956 4.81607 33.0587 5.37868 33.6213C5.94129 34.1839 6.70435 34.5 7.5 34.5H40.5C41.2957 34.5 42.0587 34.1839 42.6213 33.6213C43.1839 33.0587 43.5 32.2956 43.5 31.5V10.5C43.5 9.70435 43.1839 8.94129 42.6213 8.37868C42.0587 7.81607 41.2957 7.5 40.5 7.5ZM40.5 31.5H7.5V10.5H40.5V31.5ZM43.5 39C43.5 39.3978 43.342 39.7794 43.0607 40.0607C42.7794 40.342 42.3978 40.5 42 40.5H6C5.60218 40.5 5.22064 40.342 4.93934 40.0607C4.65804 39.7794 4.5 39.3978 4.5 39C4.5 38.6022 4.65804 38.2206 4.93934 37.9393C5.22064 37.658 5.60218 37.5 6 37.5H42C42.3978 37.5 42.7794 37.658 43.0607 37.9393C43.342 38.2206 43.5 38.6022 43.5 39Z" fill="#942BD4"/>
</g>
</svg>
