<svg width="44" height="44" viewBox="0 0 44 44" fill="none" xmlns="http://www.w3.org/2000/svg">
<g id="Group">
<path id="Union" fill-rule="evenodd" clip-rule="evenodd" d="M22 0.5C10.1256 0.5 0.5 10.1256 0.5 22C0.5 27.166 2.32182 31.9063 5.35806 35.6136C5.37375 35.6337 5.39002 35.6535 5.40686 35.673C9.3502 40.4531 15.3192 43.5 22 43.5C28.6664 43.5 34.6239 40.4663 38.5675 35.704C38.6038 35.6643 38.6377 35.623 38.6691 35.5804C41.689 31.878 43.5 27.1505 43.5 22C43.5 10.1256 33.8744 0.5 22 0.5ZM37.2892 32.4193C39.3153 29.452 40.5 25.8644 40.5 22C40.5 11.7824 32.2176 3.5 22 3.5C11.7824 3.5 3.5 11.7824 3.5 22C3.5 25.8648 4.68497 29.4526 6.71141 32.4202C7.35856 31.8673 8.24822 31.203 9.40162 30.5437C12.1077 28.9969 16.2275 27.5 22 27.5C27.7725 27.5 31.8927 28.9969 34.5993 30.5437C35.7523 31.2026 36.6419 31.8666 37.2892 32.4193ZM8.59871 34.7539C9.11819 34.3039 9.87475 33.7288 10.8904 33.1483C13.1633 31.8491 16.7725 30.5 22 30.5C27.2275 30.5 30.8373 31.8491 33.1107 33.1483C34.1259 33.7285 34.8824 34.3033 35.402 34.7532C32.0321 38.2934 27.2738 40.5 22 40.5C16.7266 40.5 11.9686 38.2938 8.59871 34.7539ZM22 8.5C20.0109 8.5 18.1032 9.29018 16.6967 10.6967C15.2902 12.1032 14.5 14.0109 14.5 16C14.5 17.9891 15.2902 19.8968 16.6967 21.3033C18.1032 22.7098 20.0109 23.5 22 23.5C23.9891 23.5 25.8968 22.7098 27.3033 21.3033C28.7098 19.8968 29.5 17.9891 29.5 16C29.5 14.0109 28.7098 12.1032 27.3033 10.6967C25.8968 9.29018 23.9891 8.5 22 8.5ZM18.818 12.818C19.6619 11.9741 20.8065 11.5 22 11.5C23.1935 11.5 24.3381 11.9741 25.182 12.818C26.0259 13.6619 26.5 14.8065 26.5 16C26.5 17.1935 26.0259 18.3381 25.182 19.182C24.3381 20.0259 23.1935 20.5 22 20.5C20.8065 20.5 19.6619 20.0259 18.818 19.182C17.9741 18.3381 17.5 17.1935 17.5 16C17.5 14.8065 17.9741 13.6619 18.818 12.818Z" fill="#6CD42B"/>
</g>
</svg>
