<svg width="48" height="48" viewBox="0 0 48 48" fill="none" xmlns="http://www.w3.org/2000/svg">
<g id="Benefits">
<path id="Vector" d="M5.14288 9.85717C5.14288 8.60686 5.63957 7.40777 6.52367 6.52367C7.40777 5.63957 8.60686 5.14288 9.85717 5.14288H38.1429C39.3932 5.14288 40.5923 5.63957 41.4764 6.52367C42.3605 7.40777 42.8572 8.60686 42.8572 9.85717V24.8572C42.0612 24.2585 41.1983 23.7545 40.2857 23.3555V9.85717C40.2857 8.67431 39.3257 7.71431 38.1429 7.71431H9.85717C8.67431 7.71431 7.71431 8.67431 7.71431 9.85717V38.1429C7.71431 39.3257 8.67431 40.2857 9.85717 40.2857H23.3555C23.7566 41.2029 24.2623 42.0652 24.8555 42.8572H9.85717C8.60686 42.8572 7.40777 42.3605 6.52367 41.4764C5.63957 40.5923 5.14288 39.3932 5.14288 38.1429V9.85717ZM11.5715 27.4252H24.8572C24.2592 28.2213 23.7558 29.0842 23.3572 29.9966H11.5715C11.2305 29.9966 10.9034 29.8611 10.6623 29.62C10.4212 29.3789 10.2857 29.0519 10.2857 28.7109C10.2857 28.3699 10.4212 28.0429 10.6623 27.8017C10.9034 27.5606 11.2305 27.4252 11.5715 27.4252ZM10.2857 35.5732C10.2857 35.2322 10.4212 34.9052 10.6623 34.664C10.9034 34.4229 11.2305 34.2875 11.5715 34.2875H21.0035C21.3444 34.2875 21.6715 34.4229 21.9126 34.664C22.1537 34.9052 22.2892 35.2322 22.2892 35.5732C22.2892 35.9142 22.1537 36.2412 21.9126 36.4823C21.6715 36.7234 21.3444 36.8589 21.0035 36.8589H11.5715C11.2305 36.8589 10.9034 36.7234 10.6623 36.4823C10.4212 36.2412 10.2857 35.9142 10.2857 35.5732ZM19.7177 10.2857C19.9702 10.286 20.217 10.3606 20.4274 10.5002C20.6377 10.6399 20.8023 10.8383 20.9006 11.0709L25.6132 22.2189C25.6806 22.3748 25.7165 22.5424 25.7188 22.7122C25.721 22.8821 25.6896 23.0506 25.6264 23.2083C25.5631 23.3659 25.4693 23.5094 25.3502 23.6305C25.2312 23.7517 25.0894 23.848 24.9329 23.914C24.7764 23.98 24.6084 24.0144 24.4386 24.0151C24.2688 24.0158 24.1005 23.9829 23.9434 23.9182C23.7864 23.8535 23.6438 23.7584 23.5237 23.6382C23.4037 23.5181 23.3086 23.3754 23.244 23.2183L22.4897 21.432H16.9389L16.1829 23.22C16.117 23.3756 16.0212 23.5167 15.9008 23.6352C15.7805 23.7537 15.6379 23.8473 15.4814 23.9108C15.3248 23.9742 15.1573 24.0062 14.9884 24.0049C14.8195 24.0036 14.6524 23.969 14.4969 23.9032C14.3413 23.8373 14.2003 23.7415 14.0817 23.6211C13.9632 23.5007 13.8696 23.3582 13.8061 23.2017C13.7427 23.0451 13.7107 22.8776 13.712 22.7087C13.7133 22.5397 13.7479 22.3727 13.8137 22.2172L18.5315 11.0692C18.63 10.8369 18.7947 10.6388 19.005 10.4995C19.2154 10.3602 19.462 10.2859 19.7143 10.2857H19.7177ZM18.0292 18.8606H21.4012L19.716 14.8715L18.0292 18.8606ZM30.4286 10.2857C30.7696 10.2857 31.0966 10.4212 31.3377 10.6623C31.5789 10.9034 31.7143 11.2305 31.7143 11.5715V13.7143H33.8572C34.1982 13.7143 34.5252 13.8498 34.7663 14.0909C35.0074 14.332 35.1429 14.659 35.1429 15C35.1429 15.341 35.0074 15.668 34.7663 15.9092C34.5252 16.1503 34.1982 16.2857 33.8572 16.2857H31.7143V18.4252C31.7143 18.7662 31.5789 19.0932 31.3377 19.3343C31.0966 19.5754 30.7696 19.7109 30.4286 19.7109C30.0876 19.7109 29.7606 19.5754 29.5195 19.3343C29.2783 19.0932 29.1429 18.7662 29.1429 18.4252V16.2857H27.0035C26.6625 16.2857 26.3354 16.1503 26.0943 15.9092C25.8532 15.668 25.7177 15.341 25.7177 15C25.7177 14.659 25.8532 14.332 26.0943 14.0909C26.3354 13.8498 26.6625 13.7143 27.0035 13.7143H29.1429V11.5715C29.1429 11.2305 29.2783 10.9034 29.5195 10.6623C29.7606 10.4212 30.0876 10.2857 30.4286 10.2857ZM46.2857 35.1429C46.2857 38.0982 45.1118 40.9324 43.0221 43.0221C40.9324 45.1118 38.0982 46.2857 35.1429 46.2857C32.1876 46.2857 29.3534 45.1118 27.2637 43.0221C25.174 40.9324 24 38.0982 24 35.1429C24 32.1876 25.174 29.3534 27.2637 27.2637C29.3534 25.174 32.1876 24 35.1429 24C38.0982 24 40.9324 25.174 43.0221 27.2637C45.1118 29.3534 46.2857 32.1876 46.2857 35.1429ZM36 28.2857C36 28.0584 35.9097 27.8404 35.749 27.6796C35.5882 27.5189 35.3702 27.4286 35.1429 27.4286C34.9156 27.4286 34.6975 27.5189 34.5368 27.6796C34.376 27.8404 34.2857 28.0584 34.2857 28.2857V34.2857H28.2857C28.0584 34.2857 27.8404 34.376 27.6796 34.5368C27.5189 34.6975 27.4286 34.9156 27.4286 35.1429C27.4286 35.3702 27.5189 35.5882 27.6796 35.749C27.8404 35.9097 28.0584 36 28.2857 36H34.2857V42C34.2857 42.2274 34.376 42.4454 34.5368 42.6061C34.6975 42.7669 34.9156 42.8572 35.1429 42.8572C35.3702 42.8572 35.5882 42.7669 35.749 42.6061C35.9097 42.4454 36 42.2274 36 42V36H42C42.2274 36 42.4454 35.9097 42.6061 35.749C42.7669 35.5882 42.8572 35.3702 42.8572 35.1429C42.8572 34.9156 42.7669 34.6975 42.6061 34.5368C42.4454 34.376 42.2274 34.2857 42 34.2857H36V28.2857Z" fill="#942BD4"/>
</g>
</svg>
