<svg width="48" height="48" viewBox="0 0 48 48" fill="none" xmlns="http://www.w3.org/2000/svg">
<g id="Benefits">
<path id="Vector" d="M33.498 4H42.606L42.806 4.028L43.004 4.084L43.124 4.136C43.284 4.204 43.43 4.306 43.562 4.436L43.642 4.524L43.73 4.638L43.838 4.818L43.916 4.998L43.954 5.126L43.982 5.254L44 5.444V14.508C43.9999 14.888 43.8555 15.2539 43.596 15.5316C43.3366 15.8093 42.9814 15.9781 42.6022 16.0041C42.2231 16.03 41.8482 15.911 41.5534 15.6711C41.2586 15.4313 41.0658 15.0885 41.014 14.712L41 14.508V9.118L28.12 21.998C27.866 22.252 27.5293 22.4065 27.1711 22.4333C26.8129 22.4601 26.4569 22.3574 26.168 22.144L26 22L19.94 16.18L8.55998 27.558C8.29233 27.8264 7.933 27.9835 7.55423 27.9977C7.17547 28.012 6.80535 27.8823 6.5183 27.6348C6.23125 27.3872 6.04855 27.0402 6.00694 26.6635C5.96532 26.2867 6.06788 25.9082 6.29398 25.604L6.43998 25.436L18.88 12.996C19.1342 12.7423 19.471 12.5882 19.8293 12.5618C20.1875 12.5353 20.5433 12.6383 20.832 12.852L21 12.996L27.06 18.816L38.876 7H33.496C33.1339 6.9995 32.7841 6.86801 32.5114 6.62981C32.2386 6.3916 32.0612 6.06277 32.012 5.704L31.998 5.5C31.998 5.13752 32.1293 4.78732 32.3675 4.51414C32.6058 4.24096 32.9349 4.0633 33.294 4.014L33.498 4ZM7.49998 34C7.89781 34 8.27934 34.158 8.56064 34.4393C8.84195 34.7206 8.99998 35.1022 8.99998 35.5V42.5C8.99998 42.8978 8.84195 43.2794 8.56064 43.5607C8.27934 43.842 7.89781 44 7.49998 44C7.10216 44 6.72063 43.842 6.43932 43.5607C6.15802 43.2794 5.99998 42.8978 5.99998 42.5V35.5C5.99998 35.1022 6.15802 34.7206 6.43932 34.4393C6.72063 34.158 7.10216 34 7.49998 34ZM19 27.5C19 27.1022 18.8419 26.7206 18.5606 26.4393C18.2793 26.158 17.8978 26 17.5 26C17.1022 26 16.7206 26.158 16.4393 26.4393C16.158 26.7206 16 27.1022 16 27.5V42.5C16 42.8978 16.158 43.2794 16.4393 43.5607C16.7206 43.842 17.1022 44 17.5 44C17.8978 44 18.2793 43.842 18.5606 43.5607C18.8419 43.2794 19 42.8978 19 42.5V27.5ZM27.5 30C27.8978 30 28.2793 30.158 28.5606 30.4393C28.8419 30.7206 29 31.1022 29 31.5V42.5C29 42.8978 28.8419 43.2794 28.5606 43.5607C28.2793 43.842 27.8978 44 27.5 44C27.1022 44 26.7206 43.842 26.4393 43.5607C26.158 43.2794 26 42.8978 26 42.5V31.5C26 31.1022 26.158 30.7206 26.4393 30.4393C26.7206 30.158 27.1022 30 27.5 30ZM39 21.5C39 21.1022 38.8419 20.7206 38.5606 20.4393C38.2793 20.158 37.8978 20 37.5 20C37.1022 20 36.7206 20.158 36.4393 20.4393C36.158 20.7206 36 21.1022 36 21.5V42.5C36 42.8978 36.158 43.2794 36.4393 43.5607C36.7206 43.842 37.1022 44 37.5 44C37.8978 44 38.2793 43.842 38.5606 43.5607C38.8419 43.2794 39 42.8978 39 42.5V21.5Z" fill="#942BD4"/>
</g>
</svg>
